HIERARCHY
ROOT Hips
{
	OFFSET -3.958830 18.904000 13.208200
	CHANNELS 6 Xposition Yposition Zposition Zrotation Yrotation Xrotation 
	JOINT LHipJoint
	{
		OFFSET 0.000000 0.000000 0.000000
		CHANNELS 3 Zrotation Yrotation Xrotation
		JOINT LeftUpLeg
		{
			OFFSET 1.800000 -1.400000 0.085000
			CHANNELS 3 Zrotation Yrotation Xrotation
			JOINT LeftLeg
			{
				OFFSET 2.215000 -6.000000 0.000000
				CHANNELS 3 Zrotation Yrotation Xrotation
				JOINT LeftFoot
				{
					OFFSET 2.500000 -6.900000 0.000000
					CHANNELS 3 Zrotation Yrotation Xrotation
					JOINT LeftToeBase
					{
						OFFSET 0.200000 -0.500000 1.950000
						CHANNELS 3 Zrotation Yrotation Xrotation
						End Site
						{
							OFFSET 0.000000 0.000000 0.000000
						}
					}
				}
			}
		}
	}
	JOINT RHipJoint
	{
		OFFSET 0.000000 0.000000 0.000000
		CHANNELS 3 Zrotation Yrotation Xrotation
		JOINT RightUpLeg
		{
			OFFSET -1.800000 -1.400000 0.085000
			CHANNELS 3 Zrotation Yrotation Xrotation
			JOINT RightLeg
			{
				OFFSET -2.215000 -6.000000 0.000000
				CHANNELS 3 Zrotation Yrotation Xrotation
				JOINT RightFoot
				{
					OFFSET -2.500000 -6.900000 0.000000
					CHANNELS 3 Zrotation Yrotation Xrotation
					JOINT RightToeBase
					{
						OFFSET -0.200000 -0.500000 1.950000
						CHANNELS 3 Zrotation Yrotation Xrotation
						End Site
						{
							OFFSET 0.000000 0.000000 0.000000
						}
					}
				}
			}
		}
	}
	JOINT LowerBack
	{
		OFFSET 0.000000 0.000000 0.000000
		CHANNELS 3 Zrotation Yrotation Xrotation
		JOINT Spine
		{
			OFFSET -0.087000 1.940000 -0.288900
			CHANNELS 3 Zrotation Yrotation Xrotation
			JOINT Spine1
			{
				OFFSET 0.000000 1.950000 0.060000
				CHANNELS 3 Zrotation Yrotation Xrotation
				JOINT Neck
				{
					OFFSET 0.000000 0.000000 0.000000
					CHANNELS 3 Zrotation Yrotation Xrotation
					JOINT Neck1
					{
						OFFSET 0.000000 1.600000 0.340000
						CHANNELS 3 Zrotation Yrotation Xrotation
						JOINT Head
						{
							OFFSET 0.000000 1.667000 -0.240000
							CHANNELS 3 Zrotation Yrotation Xrotation
							End Site
							{
								OFFSET 0.000000 0.000000 0.000000
							}
						}
					}
				}
				JOINT LeftShoulder
				{
					OFFSET 0.000000 0.000000 0.000000
					CHANNELS 3 Zrotation Yrotation Xrotation
					JOINT LeftArm
					{
						OFFSET 2.700000 1.550000 -0.730000
						CHANNELS 3 Zrotation Yrotation Xrotation
						JOINT LeftForeArm
						{
							OFFSET 5.450000 0.000000 0.000000
							CHANNELS 3 Zrotation Yrotation Xrotation
							JOINT LeftHand
							{
								OFFSET 3.450000 0.000000 0.000000
								CHANNELS 3 Zrotation Yrotation Xrotation
								JOINT LeftHandIndex1
								{
									OFFSET 0.750000 0.000000 0.000000
									CHANNELS 3 Zrotation Yrotation Xrotation
									End Site
									{
										OFFSET 0.000000 0.000000 0.000000
									}
								}
							}
						}
					}
				}
				JOINT RightShoulder
				{
					OFFSET 0.000000 0.000000 0.000000
					CHANNELS 3 Zrotation Yrotation Xrotation
					JOINT RightArm
					{
						OFFSET -2.700000 1.550000 -0.730000
						CHANNELS 3 Zrotation Yrotation Xrotation
						JOINT RightForeArm
						{
							OFFSET -5.450000 0.000000 0.000000
							CHANNELS 3 Zrotation Yrotation Xrotation
							JOINT RightHand
							{
								OFFSET -3.450000 0.000000 0.000000
								CHANNELS 3 Zrotation Yrotation Xrotation
								JOINT RightHandIndex1
								{
									OFFSET -0.750000 0.000000 0.000000
									CHANNELS 3 Zrotation Yrotation Xrotation
									End Site
									{
										OFFSET 0.000000 0.000000 0.000000
									}
								}
							}
						}
					}
				}
			}
		}
	}
}
MOTION
Frames: 8
Frame Time: 0.016667
0.489560 16.815290 -1.034700 -4.706505 -3.607757 3.854599 -14.996023 12.872841 3.033579 1.230788 -0.180068 -3.103873 -6.353989 4.097262 2.979725 -0.373040 3.948614 3.565639 0.742130 0.266700 0.362390 18.514834 -10.844949 3.133003 -0.292038 -0.539167 -3.406315 6.899239 -4.569895 2.755976 -0.794368 -3.798095 3.360615 0.042870 0.260120 0.542090 -4.132884 -0.946249 -7.575339 11.705612 0.765715 3.107559 -4.091700 0.638323 6.088368 3.344456 -2.700242 -11.780286 -7.270532 3.881977 44.061940 -1.204130 1.423730 -12.593440 -36.552062 -17.356431 6.872812 -47.016546 -3.382641 -1.774951 -8.247720 -15.848246 -0.916987 -3.496499 3.017782 0.870870 0.099970 0.193480 0.496580 29.950803 21.081506 9.377486 51.261188 6.526672 -3.106156 5.521739 15.676015 0.012409 1.881916 -1.429411 -0.034900 0.144240 -0.188030 -0.207810 
0.488220 16.813720 -1.033450 -4.663424 -3.624891 3.888333 -15.001686 12.860227 3.035541 1.229682 -0.184024 -3.088804 -6.465144 4.104381 2.889261 -0.366942 3.960470 3.565233 0.742790 0.263420 0.366740 18.512245 -10.843192 3.126784 -0.316795 -0.533250 -3.436124 6.854500 -4.555169 2.737671 -0.790497 -3.797680 3.361626 0.044020 0.261540 0.542880 -4.121097 -0.931413 -7.566491 11.578042 0.810712 3.024933 -3.997782 0.663170 6.150301 3.324314 -2.654912 -11.761778 -7.154735 3.825164 43.878539 -1.243900 1.427060 -12.351990 -36.421587 -17.370714 6.881771 -47.128950 -3.436486 -1.762177 -8.247050 -15.863079 -0.915427 -3.500886 3.019099 0.865380 0.103750 0.190460 0.498360 29.882241 21.068993 9.371680 51.290905 6.526334 -3.113159 5.473095 15.709899 -0.001479 1.883426 -1.436038 -0.035940 0.142090 -0.192310 -0.208760 
0.487250 16.812470 -1.031960 -4.614478 -3.709636 3.916993 -15.004168 12.850880 3.036803 1.178089 -0.183209 -3.090476 -6.532724 4.108903 2.849286 -0.372656 3.965635 3.564976 0.740020 0.261340 0.361390 18.512234 -10.844375 3.117318 -0.380293 -0.526982 -3.479747 6.848595 -4.557486 2.791746 -0.784424 -3.801931 3.360966 0.047700 0.266780 0.537460 -4.117112 -0.919557 -7.552088 11.500466 0.879347 2.966104 -3.956265 0.723096 6.135891 3.286030 -2.682774 -11.675037 -7.169474 3.895200 43.588776 -1.099120 1.457540 -12.273020 -36.355623 -17.247508 6.797571 -47.179246 -3.560693 -1.679296 -8.232377 -15.728242 -0.912793 -3.505531 3.017102 0.864570 0.106680 0.182740 0.498710 29.900061 20.951722 9.333127 51.246495 6.512986 -3.116503 5.432899 15.718564 -0.016294 1.880915 -1.439147 -0.043490 0.144400 -0.190550 -0.209820 
0.486960 16.812480 -1.031600 -4.669414 -3.842300 3.972446 -14.994389 12.838535 3.044293 1.185698 -0.179717 -3.034192 -6.602592 4.092682 2.636012 -0.372941 3.964105 3.563011 0.738330 0.266160 0.351770 18.524614 -10.844088 3.109295 -0.341340 -0.522088 -3.556981 6.822481 -4.557442 2.889529 -0.780462 -3.798018 3.359033 0.050770 0.267980 0.531570 -4.148768 -0.907434 -7.543554 11.733141 0.941717 2.926617 -4.083400 0.792605 6.106122 3.251480 -2.823131 -11.640780 -7.426305 4.074575 43.320925 -0.841810 1.492020 -12.339640 -36.335655 -17.156495 6.734802 -47.172583 -3.635546 -1.630255 -8.250865 -15.684716 -0.902887 -3.501399 3.024111 0.863560 0.103930 0.178610 0.498520 29.915091 20.927477 9.350419 51.246983 6.462328 -3.153805 5.358168 15.786137 -0.037569 1.881094 -1.443238 -0.045460 0.143320 -0.188260 -0.206670 
0.486680 16.812480 -1.032830 -4.692647 -3.965569 4.019883 -14.987223 12.831887 3.044497 1.139456 -0.186489 -3.052256 -6.582613 4.080240 2.614892 -0.367838 3.951292 3.571477 0.746620 0.276720 0.355380 18.532605 -10.847559 3.110471 -0.293648 -0.521157 -3.602221 6.731116 -4.528829 2.846172 -0.782463 -3.787767 3.363990 0.055210 0.268130 0.529090 -4.169609 -0.892427 -7.540542 11.866201 1.010309 2.945233 -4.165578 0.878150 6.102468 3.218552 -2.922411 -11.639639 -7.606788 4.155728 43.088297 -0.609660 1.468090 -12.458580 -36.257986 -17.134134 6.701693 -47.172761 -3.725363 -1.595077 -8.305747 -15.676441 -0.887130 -3.493842 3.026852 0.862690 0.100440 0.181330 0.506260 29.885198 20.971732 9.386426 51.215959 6.447662 -3.173390 5.367405 15.860506 -0.047369 1.883402 -1.448771 -0.043710 0.145430 -0.198420 -0.202480 
0.485390 16.812770 -1.034700 -4.566429 -3.914897 4.023640 -14.995629 12.830234 3.046215 0.997860 -0.183494 -3.064166 -6.551865 4.075005 2.648675 -0.364617 3.940364 3.580899 0.756080 0.286870 0.362200 18.524864 -10.843497 3.111335 -0.402473 -0.521511 -3.583144 6.802821 -4.520968 2.733455 -0.784587 -3.791054 3.372013 0.062670 0.267190 0.523720 -4.147196 -0.898894 -7.543470 11.640765 1.009910 2.950391 -4.092717 0.886591 6.180466 3.190068 -2.922380 -11.685484 -7.604155 4.155024 43.016946 -0.544020 1.469720 -12.460360 -36.171854 -17.251873 6.751336 -47.194314 -3.765630 -1.607085 -8.274504 -15.738966 -0.882185 -3.486096 3.022374 0.862190 0.099890 0.183880 0.516480 29.887760 21.108780 9.426544 51.212530 6.495313 -3.146252 5.252035 15.790662 -0.063342 1.883764 -1.452089 -0.045890 0.151190 -0.212310 -0.201760 
0.484960 16.813680 -1.039430 -4.506743 -3.751809 4.027004 -14.999148 12.844138 3.044275 0.885024 -0.187229 -3.185985 -6.414646 4.059206 2.791256 -0.369273 3.913349 3.589802 0.758450 0.296890 0.356170 18.518441 -10.842464 3.115570 -0.451289 -0.514938 -3.619299 6.880702 -4.525645 2.704031 -0.788306 -3.789636 3.373292 0.065630 0.269060 0.523290 -4.134361 -0.922801 -7.551983 11.547840 0.944740 3.087658 -4.116704 0.852379 6.120099 3.180459 -2.953410 -11.664245 -7.648442 4.188712 42.844964 -0.452020 1.485340 -12.783550 -36.161430 -17.222597 6.728240 -47.132127 -3.809075 -1.636880 -8.290853 -15.855219 -0.876513 -3.479572 3.024349 0.864400 0.097670 0.188510 0.522440 29.896485 21.101173 9.396196 51.200076 6.583012 -3.117964 5.185341 15.730126 -0.070119 1.884906 -1.450427 -0.044660 0.155040 -0.214710 -0.196090 
0.482430 16.813500 -1.041830 -4.442092 -3.730210 4.071755 -15.004736 12.838553 3.045580 0.825804 -0.188807 -3.209992 -6.407684 4.045428 2.755126 -0.362988 3.889855 3.597049 0.772270 0.318090 0.365410 18.513425 -10.836364 3.121150 -0.532727 -0.512624 -3.628325 7.030889 -4.517485 2.537030 -0.797526 -3.787624 3.374114 0.073640 0.257440 0.518290 -4.119504 -0.921756 -7.558011 11.401865 0.972159 3.140023 -4.068166 0.890184 6.034103 3.159681 -2.979874 -11.604071 -7.680112 4.202120 42.744540 -0.312690 1.524760 -13.248350 -36.052892 -17.049868 6.659270 -47.233916 -3.876791 -1.680993 -8.269100 -16.041038 -0.867177 -3.462388 3.025727 0.868160 0.086690 0.200080 0.529020 29.843194 20.976241 9.329198 51.308770 6.662399 -3.075024 5.108258 15.647538 -0.080806 1.893927 -1.452019 -0.040090 0.155070 -0.230810 -0.193070 
